<?xml version="1.0" standalone="no"?>
<!DOCTYPE svg PUBLIC "-//W3C//DTD SVG 20010904//EN"
 "http://www.w3.org/TR/2001/REC-SVG-20010904/DTD/svg10.dtd">
<svg version="1.0" xmlns="http://www.w3.org/2000/svg"
 width="265.000000pt" height="360.000000pt" viewBox="0 0 265.000000 360.000000"
 preserveAspectRatio="xMidYMid meet">

<g transform="translate(0.000000,360.000000) scale(0.100000,-0.100000)"
fill="#000000" stroke="none">
<path d="M200 2016 l0 -1496 150 0 150 0 2 1196 3 1196 493 -408 c272 -225
497 -410 502 -412 9 -3 180 204 180 218 0 6 -893 731 -1432 1163 l-48 39 0
-1496z"/>
<path d="M2266 3016 c-7 -175 -46 -1994 -46 -2138 0 -54 -3 -98 -7 -98 -5 0
-226 189 -493 420 -266 231 -487 420 -490 420 -3 0 -47 -49 -97 -109 l-92
-108 726 -612 c399 -337 727 -610 730 -607 5 5 74 2969 70 2972 -1 1 -68 4
-148 7 l-147 5 -6 -152z"/>
<path d="M630 1847 l0 -807 105 0 105 0 0 570 c0 314 3 570 8 569 4 0 286
-256 627 -569 341 -312 622 -566 624 -564 5 4 21 1588 16 1592 -2 2 -48 6
-103 9 l-99 6 -6 -159 c-4 -88 -7 -340 -7 -562 0 -243 -4 -402 -9 -400 -5 2
-166 143 -358 314 -191 171 -456 407 -588 524 -132 117 -257 229 -277 249
l-38 35 0 -807z"/>
</g>
</svg>
